<svg width="296" height="196" xmlns="http://www.w3.org/2000/svg" xmlns:xlink="http://www.w3.org/1999/xlink">
 <defs>
  <filter id="f" filterUnits="objectBoundingBox" height="527.4%" width="491.7%" y="-152.6%" x="-195.8%">
   <feGaussianBlur stdDeviation="25"/>
  </filter>
  <path d="m0,13.878l0,26.935l20.984,12.017l23.694,-14.013l0,-26.934" id="g"/>
  <linearGradient id="a" y2="55.524%" x2="40.788%" y1="36.858%" x1="61.181%">
   <stop offset="0%" stop-color="#78B46A"/>
   <stop offset="3%" stop-color="#7F3500"/>
   <stop offset="100%" stop-color="#FFF"/>
  </linearGradient>
  <linearGradient id="b" y2="62.428%" x2="29.852%" y1="28.582%" x1="82.186%">
   <stop offset="0%" stop-color="#78B46A"/>
   <stop offset="3%" stop-color="#7F3500"/>
   <stop offset="100%" stop-color="#FFF"/>
  </linearGradient>
  <linearGradient id="c" y2="66.572%" x2="21.557%" y1="21.945%" x1="80.66%">
   <stop offset="0%" stop-color="#78B46A"/>
   <stop offset="3%" stop-color="#7F3500"/>
   <stop offset="100%" stop-color="#FFF"/>
  </linearGradient>
  <linearGradient id="d" y2="55.262%" x2="67.462%" y1="60.558%" x1="81.016%">
   <stop offset="0%" stop-opacity="0" stop-color="#FFF"/>
   <stop offset="99%" stop-color="#DC841E"/>
  </linearGradient>
  <linearGradient id="e" y2="62.288%" x2="29.857%" y1="27.602%" x1="82.183%">
   <stop offset="0%" stop-color="#78B46A"/>
   <stop offset="3%" stop-color="#7F3500"/>
   <stop offset="100%" stop-color="#FFF"/>
  </linearGradient>
 </defs>
 <g>
  <title>background</title>
  <rect fill="none" id="canvas_background" height="198" width="298" y="-1" x="-1"/>
 </g>
 <g>
  <title>Layer 1</title>
  <g id="svg_1" fill-rule="evenodd" fill="none">
   <g id="svg_2" fill-rule="nonzero">
    <path id="svg_3" fill="#5B36A0" d="m143.994,178.096l-110.318,-65.176c-3.512,-1.974 -6.523,-5.209 -3.1,-7.331l110.71,-63.789c1.66,-1.03 4.181,-1.705 5.873,-0.72l115.786,67.19c3.512,2.038 4.142,7.717 0.643,9.774l-105.056,59.95a14.67,14.67 0 0 1 -14.538,0.102z"/>
    <path id="svg_4" fill="#6862E6" d="m143.994,175.088l-110.318,-65.178c-3.512,-1.975 -6.523,-5.21 -3.1,-7.332l110.71,-63.788c1.66,-1.029 4.181,-1.704 5.873,-0.72l115.786,67.19c3.512,2.039 4.142,7.717 0.643,9.775l-105.056,59.949a14.67,14.67 0 0 1 -14.538,0.103l0,0.001z"/>
    <path id="svg_5" opacity="0.25" fill="url(#a)" d="m153.09,89.094l-21.768,12.418s33.533,20.457 40.39,23.338l12.537,-18.007"/>
    <path id="svg_6" opacity="0.25" fill="url(#b)" d="m145.57,148.67l-21.774,-12.393l-21.774,12.418s11.34,6.92 22.18,13.274c6.882,-4.868 13.771,-9.788 21.368,-13.3l0,0.001z"/>
    <path id="svg_7" opacity="0.46" fill="url(#c)" d="m98.658,72.142l-13.811,7.878s1.17,7.222 8.028,10.103l18.082,-11.576"/>
    <ellipse id="svg_8" ry="5.865" rx="8.33" cy="74.155" cx="105.418" fill="#68E1FD"/>
    <ellipse id="svg_9" ry="2.553" rx="6.24" cy="70.695" cx="105.412" fill="#974C26"/>
    <path id="svg_10" fill="#999A1C" d="m105.187,66.438c0,-1.151 -0.039,-2.303 -0.129,-3.454c-0.026,-0.3 -0.054,-0.598 -0.084,-0.894l-0.064,-0.585c0,-0.173 -0.09,-0.643 -0.09,-0.598c-0.039,-0.236 -0.08,-0.47 -0.122,-0.7a27.482,27.482 0 0 0 -4.451,-10.888a15.913,15.913 0 0 0 -1.242,6.373c0,0.643 0.051,1.286 0.103,1.89l0,0.38a25.153,25.153 0 0 0 1.158,4.38a21.007,21.007 0 0 0 1.344,3.009a41.327,41.327 0 0 0 1.846,3.183c0.515,0.81 1.004,1.53 1.5,2.219c0.154,-1.434 0.224,-2.875 0.23,-4.315l0.001,0zm-3.274,-12.946a1.035,1.035 0 0 0 0,-0.45c0.158,0.163 0.315,0.33 0.47,0.502a1.428,1.428 0 0 0 -0.477,-0.052l0.007,0z"/>
    <path id="svg_11" fill="#999A1C" d="m107.329,67.325c0.643,-0.97 1.21,-1.93 1.756,-2.977c0.141,-0.266 0.279,-0.532 0.412,-0.798l0.263,-0.534l0.251,-0.553l0.277,-0.643a27.48,27.48 0 0 0 2.142,-11.575a15.918,15.918 0 0 0 -4.503,4.694a23.024,23.024 0 0 0 -0.933,1.647l-0.128,0.237l-0.033,0.103c-0.122,0.29 -0.244,0.58 -0.36,0.875a25.153,25.153 0 0 0 -1.035,3.44a21.005,21.005 0 0 0 -0.496,3.261a38.863,38.863 0 0 0 -0.167,3.672c0,0.958 0,1.833 0.058,2.675c0.855,-1.138 1.717,-2.308 2.496,-3.524zm4.245,-12.662c0.101,-0.113 0.176,-0.247 0.219,-0.393c0.047,0.223 0.088,0.438 0.122,0.644c-0.1,-0.1 -0.215,-0.185 -0.34,-0.251l-0.001,0z"/>
    <path id="svg_12" fill="#999A1C" d="m107.284,70.193c0.647,-0.321 1.29,-0.668 1.93,-1.041l0.482,-0.296l0.315,-0.2l0.309,-0.218l0.36,-0.264a17.288,17.288 0 0 0 4.889,-5.55a10.017,10.017 0 0 0 -3.937,1.087c-0.354,0.18 -0.695,0.38 -1.036,0.585l-0.147,0.09l-0.052,0.045l-0.476,0.354c-0.593,0.467 -1.152,0.977 -1.672,1.524c-0.481,0.498 -0.922,1.034 -1.32,1.601a41.869,41.869 0 0 0 -1.286,1.93c-0.308,0.514 -0.585,0.996 -0.83,1.466c0.83,-0.347 1.66,-0.708 2.47,-1.113l0.001,0zm6.38,-5.466a0.643,0.643 0 0 0 0.245,-0.141a6.569,6.569 0 0 1 -0.154,0.405a0.9,0.9 0 0 0 -0.09,-0.257l0,-0.007l-0.001,0zm-8.477,1.711c0,-1.151 -0.039,-2.303 -0.129,-3.454c-0.026,-0.3 -0.054,-0.598 -0.084,-0.894l-0.064,-0.585c0,-0.173 -0.09,-0.643 -0.09,-0.598c-0.039,-0.236 -0.08,-0.47 -0.122,-0.7a27.482,27.482 0 0 0 -4.451,-10.888a15.913,15.913 0 0 0 -1.242,6.373c0,0.643 0.051,1.286 0.103,1.89l0,0.38a25.153,25.153 0 0 0 1.158,4.38a21.007,21.007 0 0 0 1.344,3.009a41.327,41.327 0 0 0 1.846,3.183c0.515,0.81 1.004,1.53 1.5,2.219c0.154,-1.434 0.224,-2.875 0.23,-4.315l0.001,0zm-3.274,-12.946a1.035,1.035 0 0 0 0,-0.45c0.158,0.163 0.315,0.33 0.47,0.502a1.428,1.428 0 0 0 -0.477,-0.052l0.007,0z"/>
    <path id="svg_13" fill="#999A1C" d="m107.329,67.325c0.643,-0.97 1.21,-1.93 1.756,-2.977c0.141,-0.266 0.279,-0.532 0.412,-0.798l0.263,-0.534l0.251,-0.553l0.277,-0.643a27.48,27.48 0 0 0 2.142,-11.575a15.918,15.918 0 0 0 -4.503,4.694a23.024,23.024 0 0 0 -0.933,1.647l-0.128,0.237l-0.033,0.103c-0.122,0.29 -0.244,0.58 -0.36,0.875a25.153,25.153 0 0 0 -1.035,3.44a21.005,21.005 0 0 0 -0.496,3.261a38.863,38.863 0 0 0 -0.167,3.672c0,0.958 0,1.833 0.058,2.675c0.855,-1.138 1.717,-2.308 2.496,-3.524zm4.245,-12.662c0.101,-0.113 0.176,-0.247 0.219,-0.393c0.047,0.223 0.088,0.438 0.122,0.644c-0.1,-0.1 -0.215,-0.185 -0.34,-0.251l-0.001,0z"/>
    <path id="svg_14" fill="#999A1C" d="m107.284,70.193c0.647,-0.321 1.29,-0.668 1.93,-1.041l0.482,-0.296l0.315,-0.2l0.309,-0.218l0.36,-0.264a17.288,17.288 0 0 0 4.889,-5.55a10.017,10.017 0 0 0 -3.937,1.087c-0.354,0.18 -0.695,0.38 -1.036,0.585l-0.147,0.09l-0.052,0.045l-0.476,0.354c-0.593,0.467 -1.152,0.977 -1.672,1.524c-0.481,0.498 -0.922,1.034 -1.32,1.601a41.869,41.869 0 0 0 -1.286,1.93c-0.308,0.514 -0.585,0.996 -0.83,1.466c0.83,-0.347 1.66,-0.708 2.47,-1.113l0.001,0zm6.38,-5.466a0.643,0.643 0 0 0 0.245,-0.141a6.569,6.569 0 0 1 -0.154,0.405a0.9,0.9 0 0 0 -0.09,-0.257l0,-0.007l-0.001,0z"/>
    <path id="svg_15" fill="#A1482D" d="m161.735,84.245l-12.048,5.788a2.772,2.772 0 0 0 -0.193,4.894l28.554,16.656a2.773,2.773 0 0 0 3.731,-0.894l6.94,-10.791"/>
    <path id="svg_16" fill="#F47B56" d="m227.264,56.328l-96.07,-55.344a4.336,4.336 0 0 0 -6.497,3.756l0,57.575c0,1.287 0.686,2.476 1.8,3.12l102.42,59.106a2.323,2.323 0 0 0 3.486,-2.013l0,-57.338a10.225,10.225 0 0 0 -5.14,-8.862l0.001,0z"/>
    <path id="svg_17" fill="#FFF" d="m131.2,5.338l93.169,53.588a6.533,6.533 0 0 1 3.274,5.66l0,43.157a2.36,2.36 0 0 1 -3.531,2.045l-95.016,-54.482a2.328,2.328 0 0 1 -1.17,-2.02l0,-46.051a2.186,2.186 0 0 1 3.274,-1.897z"/>
    <ellipse id="svg_18" ry="2.315" rx="2.026" cy="84.467" cx="169.964" transform="rotate(-10.899999618530273 169.9640045166015,84.46700286865237) " fill="#AB643C"/>
    <path id="svg_19" d="m156.242,63.891l43.297,26.007l21.389,-12.431l-38.216,-22.238" opacity="0.32" fill="url(#d)"/>
    <path id="svg_20" fill="#E2AC00" d="m209.748,58.714l-46.81,-28.534a1.621,1.621 0 0 0 -2.431,1.46l0,16.257a1.704,1.704 0 0 0 0.817,1.467l46.803,27.93a1.615,1.615 0 0 0 2.412,-1.41l0.244,-15.157a2.276,2.276 0 0 0 -1.035,-2.013z"/>
    <path id="svg_21" fill="#FFF" d="m198.549,67.08c1.679,2.348 4.631,3.004 6.587,1.473c1.955,-1.53 2.18,-4.675 0.501,-7.016c-1.679,-2.34 -4.631,-3.003 -6.587,-1.472c-1.955,1.53 -2.18,4.669 -0.501,7.016l0,-0.001z"/>
    <path id="svg_22" fill="#F2F2F2" d="m193.956,55.814l-19.092,-11.492a0.727,0.727 0 0 0 -0.733,1.247l19.092,11.492a0.727,0.727 0 0 0 0.733,-1.247zm-0.785,4.669l-26.315,-15.84a0.727,0.727 0 0 0 -0.702,1.248l26.284,15.846a0.727,0.727 0 0 0 0.733,-1.248l0,-0.006z"/>
    <path id="svg_23" fill="#F47B56" d="m200.408,61.865l-46.784,-28.527a1.621,1.621 0 0 0 -2.432,1.46l0,16.25c-0.007,0.6 0.3,1.159 0.81,1.473l46.804,27.93a1.615,1.615 0 0 0 2.419,-1.44l0.244,-15.159a2.276,2.276 0 0 0 -1.061,-1.987z"/>
    <path id="svg_24" fill="#FFF" d="m189.209,70.232c1.679,2.347 4.631,3.003 6.587,1.473c1.955,-1.53 2.18,-4.676 0.501,-7.017c-1.679,-2.34 -4.631,-3.003 -6.587,-1.472c-1.955,1.53 -2.18,4.669 -0.501,7.016z"/>
    <path id="svg_25" fill="#F2F2F2" d="m184.616,58.965l-19.106,-11.492a0.727,0.727 0 0 0 -0.733,1.248l19.092,11.492a0.727,0.727 0 0 0 0.733,-1.248l0.013,0l0.001,0zm-0.791,4.701l-26.31,-15.865a0.727,0.727 0 0 0 -0.733,1.248l26.316,15.839a0.727,0.727 0 0 0 0.733,-1.248l-0.006,0.026z"/>
    <path id="svg_26" fill="#68E1FD" d="m188.668,63.782l-46.796,-28.528a1.621,1.621 0 0 0 -2.432,1.46l0,16.251a1.704,1.704 0 0 0 0.817,1.466l46.803,27.93a1.615,1.615 0 0 0 2.419,-1.44l0.244,-15.159c0.021,-0.8 -0.38,-1.551 -1.055,-1.98z"/>
    <path id="svg_27" fill="#68E1FD" d="m188.668,63.782l-46.796,-28.528a1.621,1.621 0 0 0 -2.432,1.46l0,16.251a1.704,1.704 0 0 0 0.817,1.466l46.803,27.93a1.615,1.615 0 0 0 2.419,-1.44l0.244,-15.159c0.021,-0.8 -0.38,-1.551 -1.055,-1.98z"/>
    <path id="svg_28" fill="#FFF" d="m177.463,72.148c1.679,2.348 4.631,3.004 6.587,1.473c1.955,-1.53 2.18,-4.675 0.501,-7.016c-1.678,-2.34 -4.631,-3.003 -6.586,-1.473c-1.956,1.53 -2.162,4.67 -0.502,7.016z"/>
    <path id="svg_29" fill="#F2F2F2" d="m172.87,60.881l-19.098,-11.491a0.727,0.727 0 0 0 -0.734,1.248l19.092,11.492a0.727,0.727 0 0 0 0.734,-1.248l0.006,0l0,-0.001zm-0.791,4.676l-26.316,-15.84a0.727,0.727 0 0 0 -0.733,1.248l26.315,15.84a0.727,0.727 0 0 0 0.734,-1.248z"/>
    <path id="svg_30" fill="#FF8F6F" d="m127.25,62.187a22.765,22.765 0 0 0 -6.632,9.717c-2.328,6.43 3.493,16.939 3.493,16.939l9.057,-7.17"/>
    <path id="svg_31" fill="#003B94" d="m126.273,147.21l-2.458,-1.357l0.644,-3.511s3.66,0.347 3.981,1.646"/>
    <path id="svg_32" fill="#F47B56" d="m127.173,147.158c0.553,-0.34 1.132,-0.643 1.705,-0.945c1.421,-0.778 3.473,-1.582 4.348,-3.042a1.697,1.697 0 0 0 -0.116,-1.929c-1.286,-1.556 -4.104,1.003 -5.544,-0.72c-0.283,-0.341 -0.419,-5.75 -0.419,-5.75l-5.48,1.48s-0.926,10.868 -0.823,11.537c0.102,0.668 1.987,1.286 1.987,1.286a4.857,4.857 0 0 0 1.583,-0.643c0.572,-0.418 0.051,-5.518 0.784,-4.804c0.734,0.714 1.055,3.505 1.055,3.505c0.305,0.046 0.614,0.054 0.92,0.025z"/>
    <path id="svg_33" fill="#003B94" d="m136.738,152.464l-2.457,-1.338l0.643,-3.511s3.66,0.347 3.982,1.646"/>
    <path id="svg_34" fill="#F47B56" d="m137.665,152.412c0.553,-0.34 1.132,-0.643 1.704,-0.945c1.422,-0.778 3.474,-1.582 4.349,-3.042a1.697,1.697 0 0 0 -0.116,-1.929c-1.287,-1.556 -4.104,1.003 -5.545,-0.72c-0.283,-0.341 -0.418,-5.75 -0.418,-5.75l-5.48,1.48s-0.933,10.906 -0.83,11.55c0.102,0.643 1.987,1.286 1.987,1.286a4.857,4.857 0 0 0 1.583,-0.643c0.572,-0.418 0.051,-5.518 0.784,-4.804c0.734,0.714 1.055,3.505 1.055,3.505c0.307,0.042 0.619,0.046 0.927,0.012z"/>
    <path id="svg_35" fill="#3E2928" d="m118.882,117.133l-1.615,21.588s2.573,3.55 11.2,1.576l0.083,-14.553m0.296,-4.334c-0.187,1.858 0,22.36 0,22.36s2.386,4.462 12.775,0l-0.148,-17.422"/>
    <path id="svg_36" fill="#3E2928" d="m118.078,124.264c0.707,0.49 0.952,-2.025 1.691,-1.594a42.094,42.094 0 0 0 8.517,3.755l0.064,0a0.586,0.586 0 0 1 0.792,0.29c1.834,0.547 3.7,0.976 5.59,1.286c2.424,0.386 4.431,-1.409 6.92,-1.53c0,-9.531 0.046,-36.657 -4.013,-42.445l-12.01,-4.038c-0.058,0.99 -5.828,7.678 -5.686,15.833c0.16,9.19 -1.036,17.858 -1.242,20.733c-0.032,0.489 -0.598,7.19 -0.623,7.71z"/>
    <path id="svg_37" fill="#FF8F6F" d="m138.745,73.068l-1.106,10.933s-8.96,0.36 -12.82,-2.303l0,-9.273"/>
    <path id="svg_38" fill="#FFB5A9" d="m150.137,65.872l-0.913,1.247a30.002,30.002 0 0 0 1.286,-3.119c0.258,-0.726 -0.907,-1.016 -1.164,-0.289l-0.135,0.373c0.112,-0.386 0.217,-0.774 0.315,-1.164a0.6,0.6 0 1 0 -1.164,-0.29a31.17,31.17 0 0 1 -0.907,2.985a21.3,21.3 0 0 0 0.425,-2.637c0.077,-0.765 -1.126,-0.733 -1.197,0c-0.1,1.01 -0.28,2.01 -0.54,2.99a5.57,5.57 0 0 0 -0.097,-1.029a0.604,0.604 0 0 0 -0.25,-0.43a4.653,4.653 0 0 0 -0.116,-0.4a0.605,0.605 0 0 0 -1.178,0.18l-0.077,4.502c-0.218,0.467 -0.501,0.9 -0.842,1.287c0.578,0.4 1.137,0.83 1.672,1.286c0.478,0.403 0.933,0.833 1.364,1.286c0.386,-0.48 0.757,-0.969 1.113,-1.466a0.643,0.643 0 0 0 0.115,-0.129a128.076,128.076 0 0 1 3.32,-4.682c0.476,-0.527 -0.573,-1.112 -1.03,-0.501z"/>
    <path id="svg_39" fill="#FF8F6F" d="m133.059,63.1s4.233,1.138 5.95,3.859a48.38,48.38 0 0 1 2.837,5.845l3.126,-4.855s3.795,1.164 5.3,3.029c0,0 -4.502,9.84 -8.426,10.682c-3.924,0.842 -8.092,-5.775 -8.092,-5.775s-0.862,2.765 -0.695,-0.187"/>
    <path id="svg_40" fill="#007F68" d="m135.748,73.615a8.572,8.572 0 0 1 -2.683,-3.82c-0.508,-1.73 0.129,-3.248 0.72,-4.856a15.643,15.643 0 0 0 1.107,-4.997c0.052,-1.684 -0.141,-3.37 -0.257,-5.048a0.489,0.489 0 0 1 0,-0.218c-0.566,-1.898 -1.724,-3.505 -4.008,-3.698c-5.911,-0.502 -6.246,6.045 -6.2,8.707c0.044,2.663 0.328,4.463 -1.634,5.576c-1.962,1.112 -3.378,4.032 -1.506,6.392c1.872,2.36 0.193,1.499 -1.055,3.595c-1.247,2.097 -0.926,4.714 1.634,5.66c2.56,0.945 14.46,-0.83 15.554,-1.93a2.27,2.27 0 0 0 0.56,-1.608a6.238,6.238 0 0 0 -2.232,-3.755z"/>
    <path id="svg_41" fill="#F47B56" d="m141.563,19.62a9.42,9.42 0 0 1 1.672,4.888a3.215,3.215 0 0 1 -0.547,2.283a1.319,1.319 0 0 1 -1.595,0.277a2.464,2.464 0 0 1 -0.862,-0.58a3.003,3.003 0 0 1 -0.553,-0.7l-0.154,-0.302c-0.042,0.079 -0.094,0.152 -0.155,0.218c-0.153,0.12 -0.335,0.197 -0.527,0.225c-0.322,0.06 -0.654,0.02 -0.952,-0.115a3.57,3.57 0 0 1 -1.686,-1.512a4.854,4.854 0 0 1 -0.746,-2.437c-0.095,-0.7 0.124,-1.406 0.598,-1.93a1.377,1.377 0 0 1 1.564,-0.244c0.258,0.103 0.495,0.251 0.7,0.438c0.176,0.149 0.332,0.32 0.464,0.508l0.116,0.206l0,-0.573l1.286,0.502l0.129,3.614c0.009,0.259 0.089,0.51 0.231,0.727c0.121,0.209 0.306,0.373 0.528,0.47c0.622,0.244 0.909,-0.292 0.862,-1.609a6.957,6.957 0 0 0 -1.242,-3.633a6.091,6.091 0 0 0 -2.85,-2.43a2.4,2.4 0 0 0 -2.675,0.34a3.633,3.633 0 0 0 -1.036,2.971a7.664,7.664 0 0 0 1.287,3.859a5.93,5.93 0 0 0 2.746,2.572c0.408,0.17 0.845,0.255 1.287,0.25c0.287,0.02 0.575,-0.033 0.836,-0.154l0.257,-0.141l0.779,1.447l-0.129,0.09c-0.122,0.068 -0.249,0.129 -0.38,0.18c-0.205,0.089 -0.421,0.15 -0.643,0.18a3.217,3.217 0 0 1 -0.855,0a4.31,4.31 0 0 1 -1.087,-0.277a7.076,7.076 0 0 1 -2.573,-1.89a11.209,11.209 0 0 1 -1.994,-3.113a9.529,9.529 0 0 1 -0.824,-3.453a5.542,5.542 0 0 1 0.592,-2.9a3.267,3.267 0 0 1 1.827,-1.608a3.52,3.52 0 0 1 2.534,0.128a8.175,8.175 0 0 1 3.77,3.229l0,-0.001zm-2.837,4.573c0.211,-0.27 0.306,-0.612 0.264,-0.952a2.456,2.456 0 0 0 -0.341,-1.19a1.634,1.634 0 0 0 -0.779,-0.707a0.701,0.701 0 0 0 -0.79,0.103a1.177,1.177 0 0 0 -0.284,0.933c0.015,0.424 0.141,0.836 0.367,1.196c0.185,0.326 0.472,0.584 0.817,0.733c0.247,0.127 0.548,0.08 0.746,-0.116m78.786,65.062a9.388,9.388 0 0 1 1.672,4.887a3.215,3.215 0 0 1 -0.546,2.283a1.325,1.325 0 0 1 -1.596,0.277a2.534,2.534 0 0 1 -0.862,-0.58a3.113,3.113 0 0 1 -0.553,-0.7l-0.154,-0.302a1.248,1.248 0 0 1 -0.155,0.218c-0.152,0.12 -0.334,0.199 -0.527,0.225c-0.319,0.064 -0.65,0.026 -0.946,-0.109a3.57,3.57 0 0 1 -1.685,-1.518a4.835,4.835 0 0 1 -0.753,-2.443c-0.099,-0.7 0.12,-1.408 0.599,-1.93a1.37,1.37 0 0 1 1.556,-0.244c0.258,0.102 0.496,0.25 0.701,0.437c0.176,0.152 0.331,0.325 0.464,0.515l0.122,0.205l0,-0.572l1.286,0.495l0.129,3.614c0.011,0.259 0.091,0.51 0.231,0.727c0.121,0.21 0.306,0.374 0.528,0.47c0.643,0.244 0.907,-0.29 0.868,-1.608a6.99,6.99 0 0 0 -1.241,-3.64a6.104,6.104 0 0 0 -2.843,-2.424a2.406,2.406 0 0 0 -2.676,0.334a3.633,3.633 0 0 0 -1.01,2.99a7.639,7.639 0 0 0 1.286,3.859a5.956,5.956 0 0 0 2.78,2.489c0.407,0.17 0.844,0.257 1.286,0.257c0.287,0.017 0.574,-0.036 0.836,-0.155l0.257,-0.141l0.779,1.447l-0.13,0.09c-0.121,0.069 -0.248,0.129 -0.379,0.18a2.83,2.83 0 0 1 -0.643,0.18a3.281,3.281 0 0 1 -0.862,0a4.298,4.298 0 0 1 -1.08,-0.283a7.076,7.076 0 0 1 -2.573,-1.884a11.234,11.234 0 0 1 -1.995,-3.12a9.51,9.51 0 0 1 -0.823,-3.452a5.51,5.51 0 0 1 0.592,-2.894a3.293,3.293 0 0 1 1.827,-1.615a3.564,3.564 0 0 1 2.54,0.13a8.188,8.188 0 0 1 3.693,3.305zm-2.837,4.572c0.213,-0.269 0.31,-0.611 0.27,-0.952a2.437,2.437 0 0 0 -0.347,-1.19a1.608,1.608 0 0 0 -0.772,-0.707a0.701,0.701 0 0 0 -0.791,0.097a1.164,1.164 0 0 0 -0.29,0.932c0.015,0.422 0.142,0.833 0.367,1.19c0.185,0.328 0.472,0.588 0.817,0.74a0.643,0.643 0 0 0 0.746,-0.11"/>
    <path id="svg_42" opacity="0.25" fill="url(#e)" d="m89.324,116.676l-21.774,-12.386l-21.768,12.412s12.113,7.562 22.951,13.916c6.883,-4.862 13,-10.424 20.591,-13.942z"/>
   </g>
   <g id="svg_43">
    <use id="svg_44" x="50" y="68" xlink:href="#g" filter="url(#f)" fill="#000"/>
    <use id="svg_45" x="50" y="68" xlink:href="#g" fill="#FF9271"/>
   </g>
   <path id="svg_46" d="m70.984,93.896l0,26.935l23.694,-14.013l0,-26.935l-23.694,14.013z" fill-rule="nonzero" fill="#DF5C34"/>
   <path id="svg_47" d="m50,81.878l24.347,-13.878l20.33,11.883l-23.693,14.013l-20.984,-12.018z" fill-rule="nonzero" fill="#F47B56"/>
   <path id="svg_48" fill-rule="nonzero" fill="#3E2928" d="m71.541,74.182a12.971,12.971 0 0 1 7.104,1.565c1.243,0.731 1.922,1.494 2.018,2.29c0.096,0.795 -0.314,1.487 -1.281,2.07a4.557,4.557 0 0 1 -1.493,0.59c-0.434,0.103 -0.88,0.149 -1.326,0.135l-0.487,-0.038c0.046,0.109 0.076,0.223 0.09,0.34a1.566,1.566 0 0 1 -0.256,0.776c-0.254,0.43 -0.616,0.786 -1.05,1.032a6.316,6.316 0 0 1 -3.35,0.885a6.623,6.623 0 0 1 -3.479,-0.878c-0.999,-0.59 -1.511,-1.283 -1.55,-2.078a2.245,2.245 0 0 1 1.281,-2.007a4.244,4.244 0 0 1 1.179,-0.507a4.588,4.588 0 0 1 1.018,-0.173l0.353,0l-0.641,-0.385l1.8,-1.122l4.17,2.456a2.188,2.188 0 0 0 2.075,0c0.884,-0.551 0.568,-1.276 -0.948,-2.174a9.63,9.63 0 0 0 -5.278,-1.174a10.835,10.835 0 0 0 -5.509,1.584c-1.511,0.945 -2.26,2.072 -2.248,3.38c0,1.283 0.8,2.424 2.357,3.341c1.7,0.95 3.629,1.41 5.573,1.328a10.463,10.463 0 0 0 5.509,-1.462a6.177,6.177 0 0 0 1.53,-1.283c0.293,-0.31 0.512,-0.683 0.641,-1.09l0.09,-0.404l2.376,0.134c0.004,0.073 0.004,0.146 0,0.219c-0.043,0.196 -0.101,0.389 -0.173,0.577c-0.103,0.3 -0.24,0.59 -0.41,0.859c-0.244,0.364 -0.527,0.7 -0.845,1c-0.42,0.405 -0.88,0.762 -1.377,1.065a12.801,12.801 0 0 1 -4.663,1.68a17.588,17.588 0 0 1 -5.439,0.096a12.448,12.448 0 0 1 -4.67,-1.526a6.064,6.064 0 0 1 -2.651,-2.783a4.096,4.096 0 0 1 0,-3.296a6.346,6.346 0 0 1 2.633,-2.88a14.483,14.483 0 0 1 7.327,-2.142zm2.332,6.631a1.372,1.372 0 0 0 -0.8,-1a3.29,3.29 0 0 0 -1.666,-0.455a2.81,2.81 0 0 0 -1.55,0.397c-0.384,0.187 -0.631,0.573 -0.64,1c0.058,0.445 0.345,0.827 0.755,1.007a3.27,3.27 0 0 0 1.697,0.43a3.046,3.046 0 0 0 1.627,-0.423c0.373,-0.17 0.61,-0.546 0.603,-0.956"/>
  </g>
 </g>
</svg>